<?xml version="1.0" encoding="utf-8"?>
<!-- Generator: Adobe Illustrator 24.0.1, SVG Export Plug-In . SVG Version: 6.00 Build 0)  -->
<svg version="1.1" id="Layer_1" xmlns="http://www.w3.org/2000/svg" xmlns:xlink="http://www.w3.org/1999/xlink" x="0px" y="0px"
	 viewBox="0 0 1856 1635.3" style="enable-background:new 0 0 1856 1635.3;" xml:space="preserve">
<g>
	<g>
		<path d="M1340,0.4c36.9,0,71.4,19.9,89.9,51.9l411.9,713.5c18.5,32,18.5,71.8,0,103.8l-411.9,713.5c-18.5,32-52.9,51.9-89.9,51.9
			H516.1c-37,0-71.4-19.9-89.9-51.9L14.3,869.5c-18.5-32-18.5-71.8,0-103.8L426.2,52.3c18.5-32,52.9-51.9,89.9-51.9H1340 M1340,0.1
			H516.1c-37.2,0-71.5,19.8-90.1,52L14,765.6c-18.6,32.2-18.6,71.8,0,104L426,1583.2c18.6,32.2,52.9,52,90.1,52H1340
			c37.2,0,71.5-19.8,90.1-52L1842,869.7c18.6-32.2,18.6-71.8,0-104L1430,52.1C1411.4,19.9,1377.1,0.1,1340,0.1L1340,0.1z"/>
	</g>
</g>
</svg>
