<?xml version="1.0" encoding="utf-8"?>
<!-- Generator: Adobe Illustrator 24.0.1, SVG Export Plug-In . SVG Version: 6.00 Build 0)  -->
<svg version="1.1" id="regular" xmlns="http://www.w3.org/2000/svg" xmlns:xlink="http://www.w3.org/1999/xlink" x="0px" y="0px"
	 viewBox="0 0 512.7 512" style="enable-background:new 0 0 512.7 512;" xml:space="preserve">
<path d="M512.7,162.3c-0.9-5.6-1.7-10-7.7-13.7C260.8,3.8,264.2-7,248.4,2.6C63.3,117.6,11.8,143.3,4.3,152.3
	c-6.7,6.9-3.6,17.5-3.6,177c-0.4,18.2,165.2,116.5,245.7,179.3c7.1,5.1,16,4.2,21.4-0.6c239.4-169.7,245.3-162.9,244.9-178.7
	C512.7,329.3,512.4,160.2,512.7,162.3L512.7,162.3z M480.7,300.8L398,250.5l82.7-57.5V300.8z M368.1,232.3l-95.4-58.1V44.7
	l194.7,118.5L368.1,232.3z M256.7,309.8L174,252.3l82.7-50.3l82.7,50.3L256.7,309.8z M240.7,44.7v129.6c-37.1,23-68.5,42.2-95,58.3
	L46,163.2L240.7,44.7z M115.8,250.7c-40,24-66.1,39.3-83.1,49.5V192.9L115.8,250.7z M144.1,270.5l96.6,67.2v128L46,330.2
	L144.1,270.5z M272.7,465.6v-128l96.6-67.2l98.1,59.7L272.7,465.6z"/>
</svg>
